<?xml version="1.0" encoding="UTF-8"?>
<svg version="1.1" xmlns="http://www.w3.org/2000/svg" width="750" height="750">
<path d="M0 0 C0.66 0 1.32 0 2 0 C2.50446399 2.0739075 3.00892789 4.14781501 3.51339149 6.2217226 C3.97702222 8.12775864 4.44065422 10.03379437 4.90428734 11.93982983 C6.25085716 17.47570277 7.59740224 23.01158173 8.94390869 28.54747009 C11.67953679 39.79434307 14.41533805 51.04117381 17.1519146 62.28781605 C18.7003421 68.65148666 20.2486419 75.01518834 21.796875 81.37890625 C22.10521397 82.64626554 22.41355293 83.91362484 22.7312355 85.21938896 C26.52848111 100.8280725 30.32093205 116.43790377 34.10451889 132.04990387 C35.36409698 137.2463821 36.62482091 142.44258249 37.88553047 147.63878632 C39.03634345 152.38280389 40.18501958 157.12733251 41.33215332 161.87224102 C42.02982503 164.75591991 42.72944654 167.63912295 43.42964935 170.52218819 C43.89872145 172.4562767 44.36532665 174.390963 44.83184814 176.32566833 C45.10599548 177.45287796 45.38014282 178.58008759 45.66259766 179.74145508 C45.89870758 180.71681717 46.1348175 181.69217926 46.37808228 182.69709778 C46.91936663 185.00419424 46.91936663 185.00419424 48 187 C48.87254116 195.688017 48.21909091 201.93393858 43 209 C42.61199219 209.57878906 42.22398437 210.15757812 41.82421875 210.75390625 C11.23139579 251.57590841 -68.00161691 259.02502742 -114.48132324 265.71348572 C-158.98521981 272.00295297 -203.63274176 274.41226893 -248.55228806 274.31805801 C-251.3024476 274.31239194 -254.05260091 274.30958752 -256.80276489 274.30697632 C-285.62516328 274.26726002 -314.2833665 273.66968367 -343 271 C-344.40055634 270.87271515 -344.40055634 270.87271515 -345.82940674 270.74285889 C-502.071445 256.47216736 -502.071445 256.47216736 -544.9375 211 C-550.64380256 204.0728779 -552.595172 197.879017 -552 189 C-551.42488752 185.95845156 -550.54021587 183.03790588 -549.640625 180.078125 C-546.54625269 169.30107545 -543.85797262 158.44558251 -541.234375 147.546875 C-541.01874027 146.65291834 -540.80310555 145.75896168 -540.58093643 144.83791542 C-539.20491423 139.13275449 -537.83358398 133.42647447 -536.46350861 127.71988297 C-535.25864819 122.70481463 -534.04996464 117.69066836 -532.84130859 112.67651367 C-532.59824163 111.6680989 -532.35517467 110.65968412 -532.10474205 109.62071133 C-531.61149798 107.57440146 -531.1182417 105.52809454 -530.6249733 103.48179054 C-529.88174225 100.39790298 -529.1389313 97.31391447 -528.39620972 94.22990417 C-523.69906036 74.72948 -518.96429054 55.23827516 -514.21846008 35.74964905 C-513.62448438 33.31038252 -513.03066063 30.87107906 -512.43688965 28.4317627 C-510.29218067 19.62095068 -508.14669924 10.81032734 -506 2 C-502.59846171 3.58199913 -501.04128679 4.97635776 -498.875 8.0625 C-466.3526702 51.01393133 -394.74848979 61.13919803 -345.10760498 68.00091553 C-265.20619965 78.79411376 -178.99296256 78.1136516 -22.16015625 22.94921875 C-14.69018126 17.20574029 -7.36695455 10.66574047 -2 2.875 C-1.34 1.92625 -0.68 0.9775 0 0 Z M-284.3125 101.6875 C-290.46849615 110.81246432 -291.38203507 120.54055431 -289.390625 131.2890625 C-288.17920137 136.27073316 -286.74196745 141.17609013 -285 146 C-285.61875 145.154375 -286.2375 144.30875 -286.875 143.4375 C-292.80138816 136.32921107 -300.68222256 131.51462362 -309.875 130.625 C-314.54233367 130.77671065 -318.24635814 132.24091282 -322 135 C-328.26048412 141.81834905 -328.43163098 148.75603045 -328.2734375 157.62890625 C-327.74444908 169.82444623 -320.5658296 180.27358927 -311.87109375 188.46484375 C-305.58826229 193.61965119 -299.2286937 196.43740565 -291 196 C-284.96396438 194.3903905 -281.37238489 191.11600185 -278 186 C-274.30660106 178.72665124 -275.01644657 169.0667796 -276.8984375 161.28515625 C-277.84115322 158.4737239 -278.84217634 155.72915578 -280 153 C-279.57589844 153.45890625 -279.15179688 153.9178125 -278.71484375 154.390625 C-273.01321761 160.35540311 -267.79470759 164.52413929 -259.265625 165.08984375 C-253.7291183 164.87029262 -249.58366127 162.99700022 -245.75 159 C-238.91840242 150.04052777 -237.8784731 139.96604081 -239 129 C-241.47198037 117.04989167 -246.94330134 104.4237906 -257.390625 97.390625 C-267.31281223 91.97298903 -276.91795319 92.54017173 -284.3125 101.6875 Z M-226.08203125 103.484375 C-234.66803445 114.74585374 -239.37222404 129.02627339 -237.5625 143.18359375 C-235.78824613 152.06718433 -232.62826255 157.89470366 -225 163 C-220.31173753 165.34413123 -215.99136352 165.51413497 -211 164 C-205.19572848 161.1997713 -200.26324449 157.83167709 -196 153 C-196.28875 153.70382812 -196.5775 154.40765625 -196.875 155.1328125 C-200.0853017 163.67132326 -201.90472519 172.51171153 -199.26953125 181.48828125 C-196.68664433 187.0862933 -192.74107335 191.57270796 -187 194 C-178.61716929 195.5793739 -171.97078199 192.44670817 -165 188 C-155.33957102 180.63369887 -148.98861807 167.8370123 -147 156 C-146.4527538 147.79130705 -147.99091181 141.17709498 -153.0625 134.5625 C-156.47240192 130.98067025 -159.50126825 129.59965304 -164.390625 128.9921875 C-174.41675395 129.02220585 -181.3803455 134.45227783 -188.2578125 141.22265625 C-189.12019531 142.10244141 -189.12019531 142.10244141 -190 143 C-189.79503906 142.26136719 -189.59007812 141.52273438 -189.37890625 140.76171875 C-185.95689044 127.87594629 -183.96885072 115.7009352 -190.75 103.5625 C-194.05762908 98.46761902 -197.18954645 95.93681785 -203 94 C-212.52600103 93.17879301 -219.59410747 96.49140326 -226.08203125 103.484375 Z M-268.64453125 176.8125 C-270.18326711 178.82625458 -271.59773907 180.88910988 -273 183 C-274.16527659 184.64681782 -275.33200163 186.29261147 -276.5 187.9375 C-277.66896566 189.62340825 -278.83564598 191.31090347 -280 193 C-280.86238281 194.23556641 -280.86238281 194.23556641 -281.7421875 195.49609375 C-282.28101563 196.28113281 -282.81984375 197.06617188 -283.375 197.875 C-283.85710937 198.57367188 -284.33921875 199.27234375 -284.8359375 199.9921875 C-289.74828949 208.46517046 -286.94439789 220.55727761 -284.96875 229.51171875 C-282.59302049 238.06626089 -278.27525039 243.88601647 -271 249 C-264.02959629 251.3234679 -255.30352831 251.20324804 -248.41796875 248.6953125 C-246.40030903 247.65538431 -244.40744233 246.56473199 -242.453125 245.41015625 C-240.17253078 244.09917773 -238.61165664 243.2229463 -236 243 C-234 243.92578125 -234 243.92578125 -232 245.3125 C-224.09174002 250.70309127 -216.42811031 251.28189219 -207 250 C-200.31827762 247.71887435 -196.47174307 242.83251341 -193.21875 236.7421875 C-189.73141686 228.89568793 -188.72130003 221.25888971 -188.5625 212.75 C-188.54010254 212.00556641 -188.51770508 211.26113281 -188.49462891 210.49414062 C-188.53819254 200.17643776 -195.01281601 192.90038188 -201 185 C-201.60328125 184.17757812 -202.2065625 183.35515625 -202.828125 182.5078125 C-209.93439118 173.00078072 -217.25626597 167.6124485 -229 165 C-243.66472081 164.11343115 -258.08342735 165.17270853 -268.64453125 176.8125 Z " fill="#060909" transform="translate(627,277)"/>
<path d="M0 0 C1.56696625 0.00090637 1.56696625 0.00090637 3.16558838 0.00183105 C21.45388306 0.0303462 39.59021076 0.53629667 57.8125 2.1875 C58.48464539 2.2483075 59.15679077 2.30911499 59.8493042 2.37176514 C160.32816179 11.59715025 160.32816179 11.59715025 185.5 40.0625 C189.26205224 45.14635438 189.48577168 48.95492785 188.8125 55.1875 C182.5040977 68.30897678 165.63521304 74.9572387 152.66894531 79.60864258 C67.33299413 108.86882842 -35.23147793 107.44138621 -163.4140625 74.17578125 C-183.03429524 64.21967041 -183.03429524 64.21967041 -187.1875 54.1875 C-188.07076158 49.12882003 -187.56590281 46.2142725 -185.0625 41.75 C-166.24739461 16.1491189 -117.86924466 10.58501198 -89.54592896 6.18685913 C-59.87173958 1.68309661 -29.99299581 -0.03238661 0 0 Z " fill="#070A0A" transform="translate(374.1875,215.8125)"/>
<path d="M0 0 C4.20972573 4.7173921 7.23424558 9.36700822 6.95703125 15.80859375 C3.49661841 30.2375629 -13.92488538 43.52610518 -25.98828125 51.0546875 C-32.42122212 54.91766849 -39.07290186 58.24334148 -45.89453125 61.359375 C-46.9606665 61.85002441 -46.9606665 61.85002441 -48.04833984 62.35058594 C-86.00865599 79.60910182 -127.48510035 87.25434208 -168.70703125 91.609375 C-169.49278534 91.69254974 -170.27853943 91.77572449 -171.08810425 91.86141968 C-187.2801915 93.5520394 -203.39719367 94.51357378 -219.6796875 94.5625 C-221.13853989 94.5694852 -222.59739202 94.5765261 -224.0562439 94.58361816 C-228.68984362 94.60287063 -233.32339587 94.6077943 -237.95703125 94.609375 C-239.14222792 94.61025871 -239.14222792 94.61025871 -240.35136795 94.61116028 C-264.61278589 94.62392081 -288.69763988 94.24348579 -312.83843994 91.58398438 C-314.89324819 91.35951516 -316.94899208 91.14704858 -319.00537109 90.9375 C-372.23233888 85.45297728 -437.40995927 76.06292361 -478.89453125 39.359375 C-479.6009375 38.74707031 -480.30734375 38.13476562 -481.03515625 37.50390625 C-487.38846401 31.62345918 -494.08635411 23.58672407 -494.64453125 14.609375 C-493.99224248 7.52372836 -489.14276125 1.94246997 -484.1484375 -2.79296875 C-440.18199106 -38.83478706 -368.3382584 -44.33884521 -313.89453125 -48.640625 C-312.68458496 -48.74358887 -311.47463867 -48.84655273 -310.22802734 -48.95263672 C-224.77864125 -55.9781545 -129.42918878 -53.49306294 0 0 Z M-319.39453125 -36.828125 C-320.40690353 -36.70215439 -320.40690353 -36.70215439 -321.43972778 -36.57363892 C-383.45286051 -29.47337173 -383.45286051 -29.47337173 -434.84375 2.66796875 C-439.15008159 8.94176186 -440.27988343 14.86399941 -438.89453125 22.359375 C-436.75584661 27.61914821 -433.1124059 31.62080429 -428.89453125 35.359375 C-428.35054687 35.86855469 -427.8065625 36.37773437 -427.24609375 36.90234375 C-387.55215452 71.18347308 -311.40702245 73.39091276 -261.94140625 73.5625 C-260.5603075 73.56956885 -259.17920908 73.57670149 -257.79811096 73.58389282 C-253.41357881 73.6033892 -249.02910271 73.60858488 -244.64453125 73.609375 C-243.5216099 73.60981686 -243.5216099 73.60981686 -242.37600327 73.61026764 C-219.4295999 73.61172531 -196.6784364 73.34519609 -173.89453125 70.359375 C-173.10314758 70.2575592 -172.31176392 70.15574341 -171.49639893 70.05084229 C-105.71400267 63.20257993 -105.71400267 63.20257993 -52.046875 29.12890625 C-48.41018685 23.54443258 -47.24274366 18.50927401 -48.19921875 11.875 C-51.09212172 1.40854206 -60.2553686 -5.20900713 -69.08203125 -10.578125 C-98.51547977 -27.22722615 -134.42370966 -32.82304443 -167.58203125 -36.890625 C-168.80059814 -37.04160645 -170.01916504 -37.19258789 -171.2746582 -37.34814453 C-193.93695533 -39.96092903 -216.57993056 -40.97969834 -239.38525391 -40.90136719 C-242.72569332 -40.88997366 -246.06581376 -40.89677212 -249.40624237 -40.90824413 C-272.84460169 -40.97643036 -296.13426562 -39.75678936 -319.39453125 -36.828125 Z " fill="#0E1010" transform="translate(618.89453125,249.640625)"/>
<path d="M0 0 C5.12803506 4.21138798 8.54693779 8.97898052 11.9296875 14.6484375 C13.88630669 17.86588529 16.09333048 20.81163667 18.40234375 23.78125 C22.18462136 28.84544049 20.98547928 36.27004403 20.56640625 42.33984375 C19.31982196 50.83035877 16.9735709 58.90010549 10.00390625 64.33984375 C3.37932437 66.26699484 -3.62027968 66.60124199 -9.93359375 63.52734375 C-11.99803887 62.33615468 -13.67198456 61.13757276 -15.49609375 59.58984375 C-18.68796921 57.53056926 -20.69298172 57.79685168 -24.43359375 58.33984375 C-27.14151857 59.72261387 -29.65840777 61.26080079 -32.19921875 62.9296875 C-35.92368674 65.28026957 -38.98977095 65.52522296 -43.30859375 65.58984375 C-44.33726562 65.615625 -45.3659375 65.64140625 -46.42578125 65.66796875 C-51.13577418 65.15415134 -53.69093659 63.04713628 -57.05859375 59.83984375 C-63.40053224 51.57731821 -64.07253 38.79212968 -62.97216797 28.74560547 C-61.50875071 22.20865456 -56.99898383 17.03595839 -52.79199219 12.00390625 C-51.03096711 9.84661888 -49.5452266 7.52698234 -47.99609375 5.21484375 C-37.09466558 -8.56371679 -13.77590455 -9.39768769 0 0 Z " fill="#0A0C0C" transform="translate(410.43359375,454.66015625)"/>
<path d="M0 0 C8.41620382 5.09313922 12.55485915 13.79767937 15 23 C17.1800651 32.42154006 16.87797723 41.4956318 12 50 C9.75652224 52.69217332 8.37003836 53.70604541 4.9609375 54.4375 C0.56226081 54.80027746 -2.47207645 54.12175551 -6.125 51.625 C-13.70113541 45.19813863 -19.04700061 36.55486969 -20.29956055 26.62524414 C-20.43497137 24.22164039 -20.4589743 21.84457401 -20.4375 19.4375 C-20.4674707 18.23963867 -20.4674707 18.23963867 -20.49804688 17.01757812 C-20.49331848 11.21583567 -19.20865685 6.86097485 -16 2 C-10.89108041 -2.7992881 -6.22961154 -2.25304284 0 0 Z " fill="#0E1010" transform="translate(365,380)"/>
<path d="M0 0 C4.54605352 3.40954014 6.87313313 7.48702054 8 13 C9.31664132 26.03796034 6.6898268 37.48020169 -1.26171875 47.96875 C-5.34001587 52.73440057 -8.55281053 54.75929284 -14.8125 55.375 C-18.29396278 55.31740227 -19.15737218 54.90201355 -22.3125 52.9375 C-28.41556128 46.26671208 -28.5397182 39.64316905 -28.28125 30.94140625 C-27.50249191 20.02797688 -23.00931483 10.35987294 -14.875 2.9375 C-10.02931052 -1.19787757 -6.20461559 -1.52394067 0 0 Z " fill="#0F1212" transform="translate(425,379)"/>
<path d="M0 0 C3.34625024 2.52676039 4.67977847 4.03933542 6 8 C7.03997687 21.11052806 4.19533176 30.7410955 -4 41 C-8.22361552 45.55156685 -12.8617342 48.71665449 -19 50 C-22.5074602 50.05944848 -24.79401457 50.04394088 -27.51171875 47.69140625 C-31.82102015 42.74003129 -32.41507138 38.49099586 -32.33984375 32.171875 C-31.21032615 21.62971075 -25.84618055 12.00949892 -17.84375 5.15234375 C-11.89065202 0.59045889 -7.62880393 -1.0915427 0 0 Z " fill="#0F1212" transform="translate(466,414)"/>
<path d="M0 0 C10.15658889 3.71106133 15.50892273 11.8949202 20.109375 21.2578125 C22.67641205 27.82070911 23.74879346 36.40513092 21.203125 43.09375 C19.49316125 45.77707773 17.64856383 47.23429078 15 49 C10.19009331 49.90126457 6.09561337 49.43860422 1.875 46.9375 C-7.5639917 40.21949 -13.80748253 31.56054668 -16 20 C-16.94343553 7.55002038 -16.94343553 7.55002038 -13 2 C-8.73240327 -0.84506449 -5.00779536 -0.50156323 0 0 Z " fill="#0F1212" transform="translate(322,416)"/>
<path d="M0 0 C0.495 1.485 0.495 1.485 1 3 C1.66 3 2.32 3 3 3 C2.96519531 3.72703125 2.93039062 4.4540625 2.89453125 5.203125 C2.63032817 15.01638231 3.39197857 25.22585714 10 33 C13.42060966 36.24057757 16.47319833 37.73670651 21 39 C20.67 40.32 20.34 41.64 20 43 C18.88625 42.67 17.7725 42.34 16.625 42 C5.22012973 39.50969605 -7.5342668 39.51876494 -18 45 C-19.19689453 45.61875 -19.19689453 45.61875 -20.41796875 46.25 C-26.69874265 49.95323687 -30.18798477 54.89682536 -34 61 C-34.80880275 62.21081122 -35.6205967 63.41963919 -36.4375 64.625 C-37.2109375 65.800625 -37.2109375 65.800625 -38 67 C-38.33 66.34 -38.66 65.68 -39 65 C-39.66 64.67 -40.32 64.34 -41 64 C-40.34 63.01 -39.68 62.02 -39 61 C-35.38629594 53.73387362 -35.81635752 44.28763438 -37.94140625 36.58984375 C-38.64893257 34.71872013 -39.40381681 32.86421978 -40.22265625 31.0390625 C-40.47917969 30.36617188 -40.73570312 29.69328125 -41 29 C-40.67 28.34 -40.34 27.68 -40 27 C-39.57589844 27.45890625 -39.15179688 27.9178125 -38.71484375 28.390625 C-33.01063406 34.35810591 -27.79788903 38.51260126 -19.26953125 39.09375 C-13.86764974 38.87060859 -10.21930581 37.10845983 -6.25 33.5 C1.09977339 23.21031726 0.44997114 12.06172647 0 0 Z " fill="#2D3030" transform="translate(387,402)"/>
<path d="M0 0 C0.99 0 1.98 0 3 0 C2.50168276 3.68754757 1.89932357 5.60490662 -1 8 C-1 7.34 -1 6.68 -1 6 C-1.66 5.67 -2.32 5.34 -3 5 C-1.6875 2.5 -1.6875 2.5 0 0 Z " fill="#545656" transform="translate(349,461)"/>
<path d="M0 0 C0.66 0.33 1.32 0.66 2 1 C-1.3 4.3 -4.6 7.6 -8 11 C-8 6.67750434 -5.85084926 5.11604454 -3 2 C-2.01 1.34 -1.02 0.68 0 0 Z " fill="#5B5D5D" transform="translate(369,454)"/>
<path d="M0 0 C0.66 0.33 1.32 0.66 2 1 C-0.97 3.97 -3.94 6.94 -7 10 C-7 7 -7 7 -4.625 4.4375 C-3.75875 3.633125 -2.8925 2.82875 -2 2 C-1.34 1.34 -0.68 0.68 0 0 Z " fill="#585A5A" transform="translate(197,250)"/>
<path d="M0 0 C0.66 0.33 1.32 0.66 2 1 C-0.31 3.31 -2.62 5.62 -5 8 C-5.33 7.34 -5.66 6.68 -6 6 C-2.25 1.125 -2.25 1.125 0 0 Z " fill="#515353" transform="translate(353,379)"/>
</svg>
